Coordinates
version=1
nRows=12
nColumns=24
inDegrees=yes

Units are S.I. units (second, meters, Newtons, ...)
Angles are in degrees.

endheader
time	pelvis_tilt	pelvis_list	pelvis_rotation	pelvis_tx	pelvis_ty	pelvis_tz	hip_flexion_r	hip_adduction_r	hip_rotation_r	knee_angle_r	ankle_angle_r	subtalar_angle_r	mtp_angle_r	hip_flexion_l	hip_adduction_l	hip_rotation_l	knee_angle_l	ankle_angle_l	subtalar_angle_l	mtp_angle_l	lumbar_extension	lumbar_bending	lumbar_rotation
      1.15000000	     -1.38665142	      0.66273076	     -5.86221354	      0.02233665	      0.98897782	      0.31044174	    -16.74616766	      1.65181831	      4.83135395	    -10.61848229	     10.81058699	     -8.03930950	     11.43362739	     23.48076713	      0.29401006	     -8.31676668	     -0.30491616	      2.35712714	     -8.99974546	      8.82337882	     -1.76455595	     -0.93194173	     12.52042803
      1.15416667	     -1.34747797	      0.82680539	     -5.94142216	      0.02873524	      0.98876049	      0.31023592	    -16.78079052	      1.39890333	      4.70469047	    -11.32344297	     10.66544851	     -7.73255850	     11.48552189	     23.46536039	      0.49256235	     -8.10805510	     -0.94134050	      2.09783579	     -9.33627855	      8.84119105	     -1.73003484	     -1.15740516	     12.68974167
      1.15833333	     -1.34983702	      1.00407404	     -6.01528215	      0.03518876	      0.98852581	      0.31004258	    -16.76090800	      1.14550929	      4.62700420	    -12.04658272	     10.44474156	     -7.57445767	     11.55776624	     23.48280295	      0.70472444	     -7.84264359	     -1.57245016	      1.79814532	     -9.73685717	      8.86497645	     -1.63048807	     -1.40552493	     12.80301360
      1.16250000	     -1.33557575	      1.15174050	     -6.09082485	      0.04159074	      0.98835250	      0.30980600	    -16.71730772	      0.91715535	      4.52780688	    -12.84523483	     10.24889689	     -7.33937710	     11.71026667	     23.47797565	      0.89401307	     -7.52067449	     -2.20157781	      1.38200385	    -10.28167142	      8.91060404	     -1.56449344	     -1.58786965	     12.93359444
      1.16666667	     -1.26470085	      1.33370353	     -6.15132391	      0.04806627	      0.98829324	      0.30956040	    -16.73355574	      0.65263799	      4.41449001	    -13.63778929	      9.93733628	     -7.20431140	     12.24743262	     23.38276924	      1.13607723	     -7.15078409	     -2.77825773	      0.94479626	    -10.86556104	      9.06284768	     -1.55644306	     -1.83921974	     13.01002966
      1.17083333	     -1.28613213	      1.50578129	     -6.22773323	      0.05453753	      0.98814220	      0.30931425	    -16.59828610	      0.40171900	      4.30631169	    -14.52900093	      9.67154704	     -6.97243816	     12.45615370	     23.43936179	      1.33584118	     -6.96607042	     -3.47884525	      0.54607312	    -11.18710482	      9.11390720	     -1.42877808	     -2.05736842	     13.13195160
      1.17500000	     -1.26822961	      1.69098552	     -6.29375945	      0.06103602	      0.98808465	      0.30904111	    -16.48449381	      0.13349662	      4.16956955	    -15.45215858	      9.33971021	     -6.75668691	     12.74525897	     23.42255587	      1.56588623	     -6.70913253	     -4.11697169	      0.09283771	    -11.63228643	      9.17883285	     -1.34475588	     -2.29817213	     13.23208310
      1.17916667	     -1.23566136	      1.87856338	     -6.35097511	      0.06753696	      0.98807945	      0.30874427	    -16.36115576	     -0.13792177	      4.02612749	    -16.41606643	      8.97544100	     -6.53776804	     13.13951099	     23.39364570	      1.80154771	     -6.47114376	     -4.76705524	     -0.35802635	    -12.06121102	      9.25767641	     -1.28090422	     -2.54417499	     13.31747651
      1.18333333	     -1.19894686	      2.07180701	     -6.39246530	      0.07406519	      0.98812780	      0.30844189	    -16.22835587	     -0.40711465	      3.89060731	    -17.38766707	      8.43840437	     -6.54683761	     18.10789507	     23.36132242	      2.04380609	     -6.27064965	     -5.42510996	     -0.79540892	    -12.43009861	     10.18237554	     -1.21298347	     -2.80766554	     13.32307950
      1.18750000	     -1.16336448	      2.26116486	     -6.45772446	      0.08057739	      0.98821601	      0.30812941	    -16.03879610	     -0.68782887	      3.73914732	    -18.46394765	      7.98419110	     -6.28189251	     18.15912503	     23.33558485	      2.26650971	     -6.18702588	     -6.10070207	     -1.17674804	    -12.61693541	     10.18574763	     -1.14239906	     -3.04099364	     13.42015740
      1.19166667	     -1.13270891	      2.45159647	     -6.49877920	      0.08707438	      0.98832020	      0.30777538	    -15.81599037	     -0.96287802	      3.57205581	    -19.58632694	      7.50355632	     -6.05795914	     18.27010440	     23.32165097	      2.49859759	     -6.07484048	     -6.79212951	     -1.55636885	    -12.88798949	     10.19017846	     -1.07184372	     -3.28683434	     13.47617342
      1.19583333	     -1.09094495	      2.64015617	     -6.53514140	      0.09355140	      0.98847446	      0.30740454	    -15.56918308	     -1.23866060	      3.40118292	    -20.76471478	      6.97800483	     -5.84044710	     18.46203393	     23.28780862	      2.73109810	     -5.97326870	     -7.46844591	     -1.90588135	    -13.13571682	     10.19465082	     -1.01384086	     -3.52768320	     13.51464239
